<svg version="1.1" id="Layer_1" xmlns="http://www.w3.org/2000/svg" xmlns:xlink="http://www.w3.org/1999/xlink" x="0px" y="0px"
	 width="100%" viewBox="0 0 192 192" enable-background="new 0 0 192 192" xml:space="preserve">
<path fill="#010000" opacity="1.000000" stroke="none" 
	d="
M115.000000,193.000000 
	C77.857216,193.000000 41.214344,192.966949 4.571828,193.066040 
	C1.796963,193.073532 0.894532,192.766403 0.901400,189.575989 
	C1.034425,127.783226 1.026489,65.990044 0.916343,4.197186 
	C0.911211,1.317693 1.634293,0.926478 4.298831,0.930364 
	C66.091759,1.020470 127.884865,1.019092 189.677811,0.933899 
	C192.293930,0.930292 193.091949,1.244131 193.086548,4.173829 
	C192.972214,66.133232 192.979126,128.092941 193.072266,190.052414 
	C193.076202,192.675613 192.326950,193.063797 189.951187,193.055237 
	C165.134384,192.965698 140.317123,193.000000 115.000000,193.000000 
z"/>
<path fill="#F70000" opacity="1.000000" stroke="none" 
	d="
M116.404327,28.464676 
	C127.734932,26.601328 138.690506,26.114828 149.660797,27.639101 
	C152.539963,28.039146 156.134262,28.177868 156.938126,31.784271 
	C157.746552,35.411022 154.573227,36.962624 152.079437,38.572517 
	C141.809738,45.202236 134.926804,54.721626 129.412308,65.328049 
	C122.788017,78.069046 118.137283,91.609970 113.655144,105.214691 
	C112.666107,108.216728 113.057495,109.561386 116.537041,109.345253 
	C118.510239,109.222679 120.514908,109.746155 122.508667,109.778839 
	C124.881538,109.817726 125.654411,110.710709 125.353645,113.168076 
	C125.050385,115.645889 123.978775,116.265518 121.745003,115.772964 
	C120.611336,115.523003 119.439987,115.382729 118.279228,115.326782 
	C111.211769,114.986130 110.224106,115.659256 107.628868,122.171448 
	C98.879700,144.125610 83.120857,158.625290 60.765739,166.015991 
	C51.715645,169.007965 43.671810,167.416794 39.602989,162.060303 
	C35.574924,156.757477 36.031700,148.234253 41.207726,140.517105 
	C49.263073,128.507019 61.279324,121.815102 74.334061,116.704872 
	C81.799088,113.782700 89.537544,111.740723 97.517632,110.917091 
	C100.419945,110.617554 101.315239,109.111237 102.121048,106.653481 
	C106.317017,93.855591 109.989670,80.858337 116.224380,68.812302 
	C121.410416,58.792377 128.025070,49.913620 136.595734,42.515594 
	C137.784271,41.489674 139.555511,40.906189 139.979080,38.403400 
	C131.229904,37.888309 122.688812,38.393852 114.207199,40.014233 
	C103.434433,42.072334 93.355309,45.802692 84.788040,52.883099 
	C74.415489,61.455471 72.960403,72.298920 80.623329,83.364815 
	C83.681465,87.781013 87.502586,91.509529 91.567245,94.967949 
	C93.147018,96.312111 92.913574,97.421349 91.784683,98.730896 
	C90.760864,99.918533 90.100082,101.813019 87.866112,100.469337 
	C77.152390,94.025215 67.993057,86.317665 65.714966,73.086716 
	C64.023628,63.263569 67.289597,54.986553 74.145081,48.081066 
	C85.675568,36.466488 100.288345,31.325546 116.404327,28.464676 
z"/>
<path fill="#050000" opacity="1.000000" stroke="none" 
	d="
M67.698196,156.021576 
	C62.564751,157.382736 57.431904,158.821350 54.004906,154.145020 
	C50.554863,149.437256 52.152260,144.108887 54.838066,139.571548 
	C61.262646,128.717987 72.010963,123.831612 83.361443,120.111572 
	C87.280678,118.827072 91.457771,118.341949 95.498550,117.411194 
	C98.171806,116.795433 98.885902,117.821800 98.105553,120.262764 
	C92.990776,136.262024 84.258423,149.219330 67.698196,156.021576 
z"/>
</svg>